# xmcd
#
# Track frame offsets: 
#        150
#        11135
#        21840
#        32115
#        42132
#        53145
#        61430
#        71952
#        81110
#        92937
#        101000
#        108127
#        119450
#        131052
#        140860
#        151492
#        163202
#        172605
#        183382
#        195382
#        206562
#        217687
#        229052
#        239800
#
# Disc length: 3330 seconds
#
# Revision: 0
# Processed by: cddbd v1.5.2PL0 Copyright (c) Steve Scherf et al.
# Submitted via: ExactAudioCopy v0.99pb5
#
DISCID=580d0018
DTITLE=Various Artist - Country Hicks
DYEAR=1990
DGENRE=Country
TTITLE0=Leon Bass - Country Hix's
TTITLE1=Jimmy Smith - Pinch Me Quick
TTITLE2=Dorse Lewis - Mexican Twist
TTITLE3=Phil Beasley And Charley Brown - Good Gosh Gal
TTITLE4=Lefty Nix - Model 'A' Ford Blues
TTITLE5=Don Fowler - Oklahoma Baby
TTITLE6=James Wilson - Wilson's Blues #1
TTITLE7=Jim Pipkins - Chew Tabacco Rag
TTITLE8=Blankenship Brothers - Waitin' For A Train
TTITLE9=Leon Bass - Love-A-Rama
TTITLE10=Carl Phillips - Salty Dog Blues
TTITLE11=Al Barkle - Jumpin' From 6 To 6
TTITLE12=Texas Red Rhodes - Go Cats Go
TTITLE13=Bill Chapell - Down On The Farm Boogie
TTITLE14=Webb Foley - Makin' A Plan
TTITLE15=Harmonica Frank Floyd - Swamp Root
TTITLE16=Ford Nix - Aint No Sign I Wouldn't If I Could
TTITLE17=Bob Baker - Kitty Kat Korner
TTITLE18=Hugh Friar - I Can't Stay Mad At You
TTITLE19=Tommy Boyles - We're Buggin' Out
TTITLE20=Bill Goodwin - Teenage Blues
TTITLE21=Jimmy Johnson - All Dressed Up
TTITLE22=Leroy Dobson - I Wanna Make Love
TTITLE23=The Raindrops - I Don't Want A Sweetheart
EXTD=
EXTT0=
EXTT1=
EXTT2=
EXTT3=
EXTT4=
EXTT5=
EXTT6=
EXTT7=
EXTT8=
EXTT9=
EXTT10=
EXTT11=
EXTT12=
EXTT13=
EXTT14=
EXTT15=
EXTT16=
EXTT17=
EXTT18=
EXTT19=
EXTT20=
EXTT21=
EXTT22=
EXTT23=
PLAYORDER=
